<?xml version="1.0" encoding="UTF-8"?>
<svg version="1.1" xmlns="http://www.w3.org/2000/svg" width="458" height="107">
<path d="M0 0 C1.00778503 -0.00570007 2.01557007 -0.01140015 3.05389404 -0.01727295 C5.17524169 -0.026688 7.29660373 -0.03324297 9.41796875 -0.03710938 C12.67473235 -0.04688358 15.93088247 -0.07796699 19.1875 -0.109375 C21.24999626 -0.11589897 23.31249701 -0.12115182 25.375 -0.125 C26.35204895 -0.1373468 27.3290979 -0.1496936 28.33575439 -0.16241455 C29.68791046 -0.1579129 29.68791046 -0.1579129 31.06738281 -0.15332031 C31.86202942 -0.15696594 32.65667603 -0.16061157 33.47540283 -0.16436768 C34.11773865 -0.04309509 34.76007446 0.07817749 35.421875 0.203125 C37.6840282 3.5963548 37.59357687 5.09063367 36.9453125 9.0234375 C34.9556358 17.30880763 30.42825188 21.60137573 23.421875 26.203125 C17.48122448 29.63042338 12.38333502 30.31004033 5.58984375 30.51953125 C4.29755859 30.56142578 3.00527344 30.60332031 1.67382812 30.64648438 C0.31901308 30.68628852 -1.03580467 30.72600091 -2.390625 30.765625 C-3.76498605 30.80886223 -5.13933524 30.85247812 -6.51367188 30.89648438 C-9.86839169 31.0024229 -13.2231836 31.10449689 -16.578125 31.203125 C-16.58399124 31.82508759 -16.58985748 32.44705017 -16.59590149 33.08786011 C-16.65968897 39.54406659 -16.74406969 45.99976778 -16.84057617 52.45556641 C-16.87389165 54.8669571 -16.90190268 57.27842702 -16.92456055 59.68994141 C-16.95798472 63.15040958 -17.01029453 66.61014727 -17.06640625 70.0703125 C-17.07599113 71.69536209 -17.07599113 71.69536209 -17.08576965 73.35324097 C-17.10556381 74.3541275 -17.12535797 75.35501404 -17.14575195 76.38623047 C-17.15685501 77.27003387 -17.16795807 78.15383728 -17.17939758 79.06442261 C-17.31097763 79.7701944 -17.44255768 80.47596619 -17.578125 81.203125 C-20.578125 83.203125 -20.578125 83.203125 -23.328125 83.140625 C-31.6339998 80.74469958 -37.03899431 74.26821545 -41.578125 67.203125 C-45.68194669 59.35233567 -47.00967491 52.13084537 -47.078125 43.390625 C-47.08457031 42.61468994 -47.09101562 41.83875488 -47.09765625 41.03930664 C-46.81076732 28.08378871 -40.69303267 18.06607588 -31.578125 9.203125 C-29.03484034 7.22657597 -26.45362631 5.64676808 -23.578125 4.203125 C-22.9696875 3.89761719 -22.36125 3.59210937 -21.734375 3.27734375 C-14.6596122 0.00371447 -7.63578213 0.03349097 0 0 Z " fill="#FDAE51" transform="translate(57.578125,7.796875)"/>
<path d="M0 0 C0.9311412 -0.00960754 1.86228241 -0.01921509 2.82164001 -0.02911377 C3.82997391 -0.03336365 4.8383078 -0.03761353 5.87719727 -0.04199219 C6.91046646 -0.04769226 7.94373566 -0.05339233 9.00831604 -0.05926514 C11.19645155 -0.06872172 13.38460135 -0.07525172 15.57275391 -0.07910156 C18.92643938 -0.08881746 22.27951483 -0.11983921 25.63305664 -0.15136719 C27.75609987 -0.15789602 29.87914748 -0.16314696 32.00219727 -0.16699219 C33.51166176 -0.18551239 33.51166176 -0.18551239 35.05162048 -0.20440674 C35.98591385 -0.20140564 36.92020721 -0.19840454 37.8828125 -0.1953125 C38.70506821 -0.19895813 39.52732391 -0.20260376 40.37449646 -0.20635986 C43.03913229 0.25302788 43.91621264 1.00113143 45.50610352 3.16113281 C47.12782818 16.27802348 44.17992213 27.46810687 36.50610352 38.16113281 C32.4834479 42.99756704 28.16385019 46.44915507 22.50610352 49.16113281 C21.38461914 49.70253906 21.38461914 49.70253906 20.24047852 50.25488281 C14.22463163 53.04368601 9.11913501 54.30986053 2.44360352 54.41113281 C0.91026367 54.44980469 0.91026367 54.44980469 -0.65405273 54.48925781 C-3.88693973 54.11571929 -5.19760707 53.43090618 -7.49389648 51.16113281 C-8.40982212 48.4133559 -8.62467332 46.76878196 -8.63916016 43.93676758 C-8.64554001 43.0890126 -8.65191986 42.24125763 -8.65849304 41.36781311 C-8.65960587 40.45527267 -8.66071869 39.54273224 -8.66186523 38.60253906 C-8.66519363 37.66184067 -8.66852203 36.72114227 -8.67195129 35.75193787 C-8.67701413 33.76228321 -8.67935982 31.77262007 -8.67919922 29.78295898 C-8.68138548 26.73895283 -8.69954739 23.6953092 -8.71850586 20.65136719 C-8.72143994 18.71842572 -8.72342464 16.78548253 -8.72436523 14.85253906 C-8.73155075 13.94202286 -8.73873627 13.03150665 -8.74613953 12.09339905 C-8.7430629 11.24249191 -8.73998627 10.39158478 -8.73681641 9.51489258 C-8.73824142 8.76893326 -8.73966644 8.02297394 -8.74113464 7.25440979 C-8.45440059 4.82673522 -7.77829759 3.23316619 -6.49389648 1.16113281 C-4.12079083 -0.02542002 -2.64789927 0.02200942 0 0 Z " fill="#F99452" transform="translate(52.493896484375,41.8388671875)"/>
<path d="M0 0 C4.186875 -0.04125 8.37375 -0.0825 12.6875 -0.125 C14.65529419 -0.15231201 14.65529419 -0.15231201 16.6628418 -0.18017578 C17.70609619 -0.1851709 18.74935059 -0.19016602 19.82421875 -0.1953125 C21.41882935 -0.21102295 21.41882935 -0.21102295 23.0456543 -0.22705078 C26.08126781 0.00624569 28.25623267 0.71794865 31 2 C31 2.66 31 3.32 31 4 C31.598125 4.226875 32.19625 4.45375 32.8125 4.6875 C36.17108893 6.70265336 37.57711286 9.3988618 38.56640625 13.14453125 C39.13513638 16.88995222 39.2235704 20.59556682 39.25 24.375 C39.270625 25.10460937 39.29125 25.83421875 39.3125 26.5859375 C39.35894485 33.08821717 37.97079537 37.71802642 33.625 42.75 C29.01688622 46.69981181 25.96970641 48.38378876 19.82421875 48.29296875 C18.25933716 48.28172974 18.25933716 48.28172974 16.6628418 48.27026367 C15.350979 48.24295166 14.03911621 48.21563965 12.6875 48.1875 C8.500625 48.125625 4.31375 48.06375 0 48 C0 32.16 0 16.32 0 0 Z M12 10 C12 19.24 12 28.48 12 38 C20.2797586 38.86019352 20.2797586 38.86019352 23.5 36.25 C27.22903704 30.65644445 26.47293306 23.46074653 26 17 C25.17938176 14.23104274 24.07392685 12.07392685 22 10 C18.7 10 15.4 10 12 10 Z " fill="#FEBD5A" transform="translate(164,27)"/>
<path d="M0 0 C6.0328125 -0.0928125 6.0328125 -0.0928125 12.1875 -0.1875 C14.07698364 -0.22846802 14.07698364 -0.22846802 16.00463867 -0.27026367 C17.50861206 -0.28150269 17.50861206 -0.28150269 19.04296875 -0.29296875 C20.06414795 -0.3086792 21.08532715 -0.32438965 22.13745117 -0.34057617 C26.59331499 0.18956711 29.16645916 2.16216993 32.27734375 5.2890625 C35.37217384 10.15938469 34.82546695 15.44003668 34 21 C32.62805822 23.91953009 31.22487183 25.60826278 29 28 C29.8971875 29.5159375 29.8971875 29.5159375 30.8125 31.0625 C33.37187068 35.5368608 35.36771446 40.10314339 37 45 C35.08768431 47.58725064 33.77795399 48.06579141 30.625 49 C27 49 27 49 24.375 47.3125 C21.23104233 43.70619562 19.92914426 39.00677961 18.40625 34.546875 C17.23643329 31.74192319 17.23643329 31.74192319 14.34375 31.140625 C13.5703125 31.09421875 12.796875 31.0478125 12 31 C12.01160156 32.14339844 12.02320313 33.28679688 12.03515625 34.46484375 C12.04453288 35.95572754 12.05363321 37.44661309 12.0625 38.9375 C12.07087891 39.69224609 12.07925781 40.44699219 12.08789062 41.22460938 C12.09652441 43.14994313 12.05224333 45.07535581 12 47 C11.505 47.495 11.505 47.495 11 48 C7.37 48 3.74 48 0 48 C0 32.16 0 16.32 0 0 Z M13 9 C11.71387324 10.05978933 11.71387324 10.05978933 11.90234375 12.50390625 C11.91394531 13.51324219 11.92554688 14.52257812 11.9375 15.5625 C11.94652344 16.57441406 11.95554687 17.58632813 11.96484375 18.62890625 C11.97644531 19.41136719 11.98804688 20.19382812 12 21 C17.58500567 20.80101292 17.58500567 20.80101292 22 18 C22.58345476 15.04253508 22.58345476 15.04253508 22 12 C18.75566237 9.29638531 17.29107948 9 13 9 Z " fill="#FEBD5A" transform="translate(334,27)"/>
<path d="M0 0 C2.26921536 -0.13489391 4.5407067 -0.23193995 6.8125 -0.3125 C8.07707031 -0.37050781 9.34164062 -0.42851562 10.64453125 -0.48828125 C14 0 14 0 15.80859375 2.08984375 C17.13220827 5.32293495 18.24502136 8.52743031 19.25 11.875 C19.67429326 13.28391017 20.09878522 14.6927605 20.5234375 16.1015625 C20.75385742 16.87274414 20.98427734 17.64392578 21.22167969 18.43847656 C22.09374816 21.30853378 23.00237251 24.16572673 23.9140625 27.0234375 C24.56789918 29.09889822 25.22154605 31.17441875 25.875 33.25 C26.19758789 34.25015137 26.52017578 35.25030273 26.85253906 36.28076172 C27.14612305 37.2245166 27.43970703 38.16827148 27.7421875 39.140625 C28.0088623 39.98141602 28.27553711 40.82220703 28.55029297 41.68847656 C29.03342065 44.17178432 28.80891146 45.62855831 28 48 C23.66239148 49.00874617 20.86600963 49.40319518 17 47 C15.00717021 43.77024137 14 41.81094059 14 38 C9.38 38 4.76 38 0 38 C-0.309375 39.464375 -0.61875 40.92875 -0.9375 42.4375 C-1.875 46.875 -1.875 46.875 -3 48 C-4.85287502 48.07226502 -6.70833878 48.0838122 -8.5625 48.0625 C-9.57441406 48.05347656 -10.58632812 48.04445312 -11.62890625 48.03515625 C-12.41136719 48.02355469 -13.19382813 48.01195312 -14 48 C-13.4150874 41.68294387 -11.96648128 36.02176085 -10 30 C-9.76152344 29.2575 -9.52304688 28.515 -9.27734375 27.75 C-7.93866612 23.65350016 -6.49325558 19.60507786 -5 15.5625 C-3.11650193 10.43358987 -1.50370607 5.25157953 0 0 Z M7 15 C4.99706653 18.00440021 4.50728374 19.70993945 3.875 23.1875 C3.70742187 24.08855469 3.53984375 24.98960938 3.3671875 25.91796875 C3.18542969 26.94857422 3.18542969 26.94857422 3 28 C5.64 28 8.28 28 11 28 C10.01 23.71 9.02 19.42 8 15 C7.67 15 7.34 15 7 15 Z " fill="#FEBD59" transform="translate(219,27)"/>
<path d="M0 0 C3.27489089 3.19813563 5.8454412 6.22257379 6.25 10.875 C5.96833695 14.3957881 5.61292013 15.64837188 3 18 C-0.60804584 18.97717908 -2.4314543 19.18951523 -6 18 C-6.94921875 15.93359375 -6.94921875 15.93359375 -7.6875 13.4375 C-7.93886719 12.61121094 -8.19023437 11.78492188 -8.44921875 10.93359375 C-8.63097656 10.29550781 -8.81273437 9.65742187 -9 9 C-12.96398859 7.88637182 -12.96398859 7.88637182 -16.75 8.9375 C-20.44519695 15.03457497 -20.36801152 21.23737701 -19 28 C-17.8327467 31.91863608 -17.4820212 32.67865253 -14 35 C-9.51098366 35.76954566 -6.6870898 33.93514748 -2.96484375 31.6796875 C-1 31 -1 31 1.13671875 31.75 C3.31761105 33.21307241 4.55114783 34.82672175 6 37 C4.57247607 40.59950927 3.02291657 41.89823164 -0.375 43.6875 C-1.14585937 44.10386719 -1.91671875 44.52023438 -2.7109375 44.94921875 C-8.38787767 47.55518617 -14.56862401 47.81699428 -20.625 46.375 C-25.86085577 43.34371508 -29.87082521 40.44909501 -31.9375 34.5625 C-34.21007074 25.23225615 -34.60435458 14.59479521 -30 6 C-27.53985475 2.35695305 -25.21515866 -0.35003142 -21.3125 -2.4375 C-13.73500618 -3.72424423 -6.71988748 -4.03193249 0 0 Z " fill="#FEBD5A" transform="translate(283,29)"/>
<path d="M0 0 C3.41029791 3.33279114 4.49330576 5.58260724 5.0625 10.25 C4.66797737 13.32727655 4.02075619 14.56812756 1.75 16.6875 C-1.32267358 17.60276447 -3.42719132 17.86540458 -6.5625 17.1875 C-9.18504724 14.8563469 -8.8280836 12.06283122 -9.25 8.6875 C-12.07568546 6.36711905 -12.07568546 6.36711905 -15.3125 6.875 C-18.54740953 7.42504498 -18.54740953 7.42504498 -20.25 10.6875 C-21.94776067 16.45988627 -22.18136938 22.99770455 -19.9375 28.625 C-18.44488877 31.89054787 -18.44488877 31.89054787 -15.25 33.6875 C-10.76098366 34.45704566 -7.9370898 32.62264748 -4.21484375 30.3671875 C-2.25 29.6875 -2.25 29.6875 -0.11328125 30.375 C2.58848306 32.27812958 3.45544771 34.71002974 4.75 37.6875 C-0.65335936 42.7306354 -7.51466202 45.85853915 -14.9375 46.125 C-20.96778732 45.7852655 -25.43699662 43.87191788 -29.5625 39.4375 C-35.67201385 32.40737447 -34.79324843 22.31205114 -34.38916016 13.59130859 C-33.94550282 7.52176488 -31.75602412 3.8790848 -27.3125 -0.25 C-19.52401123 -6.837951 -7.98563142 -5.6820839 0 0 Z " fill="#FEBD5A" transform="translate(154.25,30.3125)"/>
<path d="M0 0 C10.23 0 20.46 0 31 0 C31 2.97 31 5.94 31 9 C29 11 29 11 25.0859375 11.1953125 C23.51550649 11.18200376 21.94513779 11.15813602 20.375 11.125 C19.57320313 11.11597656 18.77140625 11.10695313 17.9453125 11.09765625 C15.96341477 11.07406223 13.98167019 11.03819065 12 11 C12 13.64 12 16.28 12 19 C16.95 19 21.9 19 27 19 C28 26 28 26 26 29 C22.7421875 29.29296875 22.7421875 29.29296875 18.875 29.1875 C16.95300781 29.14689453 16.95300781 29.14689453 14.9921875 29.10546875 C14.00476563 29.07066406 13.01734375 29.03585938 12 29 C12 31.97 12 34.94 12 38 C18.93 38 25.86 38 33 38 C31.75461151 45.47233091 31.75461151 45.47233091 29 48 C26.3203125 48.50170898 26.3203125 48.50170898 23.125 48.49609375 C21.97515625 48.49673828 20.8253125 48.49738281 19.640625 48.49804688 C17.83851563 48.46807617 17.83851563 48.46807617 16 48.4375 C14.19789063 48.44813477 14.19789063 48.44813477 12.359375 48.45898438 C3.5214038 48.39458212 3.5214038 48.39458212 1.35380554 46.75421143 C-0.36777655 44.52344868 -0.36408303 43.3258801 -0.34057617 40.52856445 C-0.34034958 39.62785721 -0.34012299 38.72714996 -0.33988953 37.79914856 C-0.32440567 36.83031235 -0.30892181 35.86147614 -0.29296875 34.86328125 C-0.28872391 33.86870407 -0.28447906 32.87412689 -0.28010559 31.84941101 C-0.26330153 28.67016625 -0.22564576 25.49155344 -0.1875 22.3125 C-0.17245541 20.15821227 -0.15876662 18.00391462 -0.14648438 15.84960938 C-0.11594309 10.56596642 -0.05722409 5.28369125 0 0 Z " fill="#FEBD59" transform="translate(376,27)"/>
<path d="M0 0 C26.92307692 0 26.92307692 0 30.58203125 3.5234375 C34.53892129 9.47761489 35.02380911 14.97821487 34 22 C32.7022576 26.26728238 30.47443254 28.63207272 26.9375 31.375 C22.2323123 33.77896053 17.19422458 33.74349508 12 34 C12 38.62 12 43.24 12 48 C8.04 48 4.08 48 0 48 C0 32.16 0 16.32 0 0 Z M12 10 C12 14.62 12 19.24 12 24 C15.43230448 23.73606499 15.43230448 23.73606499 19 23 C21.71232939 18.93150591 21.30699887 16.83523216 21 12 C20.34 11.34 19.68 10.68 19 10 C16.69 10 14.38 10 12 10 Z " fill="#FEBD5A" transform="translate(294,27)"/>
<path d="M0 0 C24 0 24 0 30 4 C34.13399628 8.70420266 34.35344788 13.15024531 34.2734375 19.20703125 C33.84679357 23.56489427 32.74329425 25.55329696 30 29 C24.35842374 33.37509996 19.01256579 33.74638098 12 34 C12.01160156 34.92683594 12.02320313 35.85367188 12.03515625 36.80859375 C12.04417969 38.00613281 12.05320312 39.20367187 12.0625 40.4375 C12.07410156 41.63246094 12.08570313 42.82742187 12.09765625 44.05859375 C12 47 12 47 11 48 C7.37 48 3.74 48 0 48 C0 32.16 0 16.32 0 0 Z M12 10 C12 14.62 12 19.24 12 24 C15.40080577 23.89592083 15.40080577 23.89592083 19 23 C21.15254366 20.85701707 21.15254366 20.85701707 22 18 C21.74756206 14.4658688 20.99789249 12.99683874 19 10 C16.69 10 14.38 10 12 10 Z " fill="#FEBD59" transform="translate(415,27)"/>
<path d="M0 0 C0 0.66 0 1.32 0 2 C-0.66 2 -1.32 2 -2 2 C-2.00586624 2.62196259 -2.01173248 3.24392517 -2.01777649 3.88473511 C-2.08156397 10.34094159 -2.16594469 16.79664278 -2.26245117 23.25244141 C-2.29576665 25.6638321 -2.32377768 28.07530202 -2.34643555 30.48681641 C-2.37985972 33.94728458 -2.43216953 37.40702227 -2.48828125 40.8671875 C-2.49786613 42.49223709 -2.49786613 42.49223709 -2.50764465 44.15011597 C-2.52743881 45.1510025 -2.54723297 46.15188904 -2.56762695 47.18310547 C-2.57873001 48.06690887 -2.58983307 48.95071228 -2.60127258 49.86129761 C-2.73285263 50.5670694 -2.86443268 51.27284119 -3 52 C-6 54 -6 54 -8.75 53.9375 C-15.90133488 51.87461494 -21.35200636 46.73235811 -24.97265625 40.26171875 C-28.02778667 33.39833274 -28.34409452 25.89406109 -25.8984375 18.80859375 C-22.33648184 11.19896121 -18.06623197 5.68198279 -11.0625 1.0625 C-7.14094661 -0.29803893 -4.13426376 -0.21384123 0 0 Z " fill="#F99350" transform="translate(43,37)"/>
<path d="M0 0 C1.32 0.66 2.64 1.32 4 2 C3.01 2 2.02 2 1 2 C1 4.64 1 7.28 1 10 C5.95 10 10.9 10 16 10 C16.33 12.31 16.66 14.62 17 17 C16.34 17 15.68 17 15 17 C15 15.02 15 13.04 15 11 C9.72 11 4.44 11 -1 11 C-1.09765625 3.28515625 -1.09765625 3.28515625 -1 1 C-0.67 0.67 -0.34 0.34 0 0 Z " fill="#FEC46E" transform="translate(387,36)"/>
</svg>
